<?xml version="1.0" standalone="no"?>
<!DOCTYPE svg PUBLIC "-//W3C//DTD SVG 20010904//EN"
 "http://www.w3.org/TR/2001/REC-SVG-20010904/DTD/svg10.dtd">
<svg version="1.0" xmlns="http://www.w3.org/2000/svg"
 width="512.000000pt" height="512.000000pt" viewBox="0 0 512.000000 512.000000"
 preserveAspectRatio="xMidYMid meet">
<metadata>
Created by potrace 1.14, written by Peter Selinger 2001-2017
</metadata>
<g transform="translate(0.000000,512.000000) scale(0.100000,-0.100000)"
fill="#000000" stroke="none">
<path d="M1772 4449 c-122 -21 -251 -105 -320 -208 -103 -154 -115 -333 -35
-501 31 -65 59 -97 219 -261 163 -165 184 -190 184 -219 0 -29 -20 -53 -174
-209 -95 -97 -188 -199 -205 -226 -95 -149 -96 -364 -3 -525 14 -25 106 -127
204 -226 157 -160 178 -185 178 -214 0 -29 -21 -54 -178 -214 -182 -184 -218
-231 -251 -327 -71 -209 7 -446 188 -567 154 -103 333 -115 501 -35 65 31 97
59 261 219 165 163 190 184 219 184 29 0 54 -21 214 -178 100 -98 202 -191
227 -205 187 -109 407 -93 575 41 128 101 201 291 174 455 -36 226 -212 393
-445 422 -75 9 -180 -11 -265 -52 -65 -31 -97 -59 -261 -219 -167 -165 -190
-184 -220 -184 -31 0 -60 27 -346 313 -290 290 -313 315 -313 347 0 32 23 57
313 347 285 286 315 313 346 313 29 0 50 -16 177 -140 182 -179 229 -205 374
-205 86 0 101 3 162 32 85 40 151 106 191 191 29 61 32 76 32 162 0 86 -3 101
-32 162 -40 85 -106 151 -191 191 -61 29 -76 32 -162 32 -144 0 -191 -26 -374
-205 -127 -124 -148 -140 -177 -140 -31 0 -61 27 -346 313 -290 290 -313 315
-313 347 0 32 23 57 313 347 286 287 315 313 346 313 30 0 52 -18 215 -178
100 -98 202 -191 227 -205 187 -109 407 -93 575 41 128 101 201 291 174 455
-36 226 -212 393 -445 422 -75 9 -180 -11 -265 -52 -65 -31 -97 -59 -261 -219
-165 -163 -190 -184 -219 -184 -29 0 -54 21 -214 178 -100 98 -202 191 -227
205 -102 60 -238 86 -347 66z"/>
</g>
</svg>
